<svg id="Layer_1" data-name="Layer 1" xmlns="http://www.w3.org/2000/svg" viewBox="0 0 322.69 269.73">
  <defs>
    <style>
      .cls-1 {
        fill: none;
        stroke: #ffffff; /* Changed to white */
        stroke-width: 3; /* Made it a little bolder */
        stroke-miterlimit: 10;
      }
      .cls-2 {
        fill: #ffffff; /* Changed to white */
      }
    </style>
  </defs>
  <path class="cls-1" d="M277.75,422.49" transform="translate(-144.66 -272.99)"/>
  <path class="cls-2" d="M198.32,489.06c-.44-71-.76-142.38-.73-213.57l2.5,2.5H169.57l2.39-3.22A19,19,0,0,1,174,286.29a20.64,20.64,0,0,1-5.16,11.1,22.05,22.05,0,0,1-4.65,3.95,14.79,14.79,0,0,1-1.38.82c-.49.25-1,.49-1.49.69a17.7,17.7,0,0,1-3.06.94,17.51,17.51,0,0,1-11.72-1.59h0l3.08-2.44V540.22l-2.5-2.5H358.92l-2.5,2.5V487.29l2.5,2.5C305.38,489.82,251.66,489.49,198.32,489.06Zm3.54-3.54c52.54-.43,104.71-.76,157.06-.73h2.5v57.93H144.66V296.89l3.08.44h0a27.66,27.66,0,0,0,8.19-1.83,14.11,14.11,0,0,0,3.14-1.81,21.67,21.67,0,0,0,3-2.57,16.63,16.63,0,0,0,2.33-3,15.92,15.92,0,0,0,1.66-3.51,20.73,20.73,0,0,0,.93-4,32.86,32.86,0,0,0,.21-4.4V273h35.42v2.5C202.61,345.5,202.29,415.32,201.86,485.52Z" transform="translate(-144.66 -272.99)"/>
  <path class="cls-2" d="M440.34,516.33a19.64,19.64,0,0,1,5.88-4.39,18.74,18.74,0,0,1,7-1.86,18.24,18.24,0,0,1,6.8.87,15.47,15.47,0,0,1,5.62,3.22h0l-3.35,2.35.17-15.07.09-15.06.18-30.13.2-60.26.41-120.51,1.45,1.45L253,276.55l1.06-1.06.27,132.37.51,132.36L253,538.38l187.23-.66h0l-2.4,3.22a14.51,14.51,0,0,1-2.72-5.89,19.47,19.47,0,0,1-.33-6.55,21.75,21.75,0,0,1,1.75-6.41A21.52,21.52,0,0,1,440.34,516.33Zm9.31,8.54a22.78,22.78,0,0,0-2.22,2.86,30.92,30.92,0,0,0-1.94,3.41,34.8,34.8,0,0,0-1.61,3.87,40.16,40.16,0,0,0-1.22,4.49l-.7,3.22h-1.69L253,542.06h-1.85v-1.83l.5-132.36L252,275.49v-1.06H253L464.8,274h1.44v1.45L466.66,396l.2,60.26.17,30.13.1,15.06.17,15.07,0,3.32-3.4-1h0c-1.78.24-3.36.45-4.82.79a21.27,21.27,0,0,0-3.9,1.25A16.17,16.17,0,0,0,449.65,524.87Z" transform="translate(-144.66 -272.99)"/>
  <path class="cls-2" d="M416.34,385.86c-3.18-.71-6-1.17-8.66-1.55s-5.16-.61-7.57-.76c-4.78-.22-9.44-.41-14-.54s-9.12-.2-13.62-.16-9,.2-13.51.61l2.07-2.07-.21,52.93-1.86-1.87,52.93.21h1.67v1.66l-.2,53v1.47h-1.45l-105.9-.4h-1.05v-1l-.69-158.83v-1.74H306l105.9-.49h2.46l-.22,2.25c-.44,4.54-.62,9-.69,13.53s0,9,.09,13.62.29,9.24.5,14c.12,2.4.37,4.89.74,7.56S415.59,382.65,416.34,385.86Zm-8.94-8.94a15,15,0,0,0,1.59-4.54,39.9,39.9,0,0,0,.74-5.68c.2-4.06.39-8.22.49-12.46s.16-8.53.09-12.84-.25-8.66-.68-12.94l2.24,2.24L306,330.21l1.75-1.75L307,487.29l-1-1.06,105.9-.4-1.46,1.46-.21-53,1.67,1.66-52.93.21h-1.86v-1.87l-.2-52.93v-2.27l2.08.2c4.29.41,8.63.56,12.95.61s8.62,0,12.84-.16,8.38-.32,12.44-.54a42.88,42.88,0,0,0,5.65-.76A16.4,16.4,0,0,0,407.4,376.92Z" transform="translate(-144.66 -272.99)"/>
  <path class="cls-2" d="M146.39,537.86c25.14-8.21,50-17.15,74.34-27.51,12.19-5.08,24.2-10.59,36.08-16.33l8.87-4.39c3-1.46,5.86-3,8.79-4.55,5.88-3,11.61-6.27,17.4-9.44,11.44-6.56,22.8-13.29,33.8-20.57,5.57-3.54,10.95-7.35,16.4-11.07,2.72-1.86,5.35-3.85,8-5.77s5.37-3.84,8-5.84A351.12,351.12,0,0,0,388.22,407a368.24,368.24,0,0,0,27.12-28.6l.17-.18c-.13.13-.1.14,0,0a7,7,0,0,0,.28-.77c.12-.36.26-.8.5-1.35a6.58,6.58,0,0,1,1.25-1.87l-.15.17a207.33,207.33,0,0,0,16.76-22.18A193.1,193.1,0,0,0,447.62,328a169.42,169.42,0,0,0,9.62-26,153.68,153.68,0,0,0,5.12-27.25l5,.42a157.75,157.75,0,0,1-4.7,28.3,173.69,173.69,0,0,1-9.62,27,187.33,187.33,0,0,1-13.78,25.13,214.12,214.12,0,0,1-17.18,22.91l-.15.16c.12-.13.09-.14,0,0s-.16.42-.28.78-.27.8-.51,1.34a6.18,6.18,0,0,1-1.25,1.87l.17-.17a378.57,378.57,0,0,1-27.66,29,355.88,355.88,0,0,1-30.72,25.74c-2.66,2-5.38,3.92-8.08,5.89s-5.37,3.93-8.13,5.8c-5.51,3.74-11,7.58-16.59,11.13-11.12,7.33-22.6,14.09-34.17,20.68a688.69,688.69,0,0,1-71.83,34.81c-24.55,10.25-49.67,19.06-75,27.11Z" transform="translate(-144.66 -272.99)"/>
</svg>
